<svg width="75" height="66" viewBox="0 0 75 66" fill="none" xmlns="http://www.w3.org/2000/svg">
<path d="M67.9688 0H49.2188C45.3369 0 42.1875 3.16741 42.1875 7.07143V25.9286C42.1875 29.8326 45.3369 33 49.2188 33H60.9375V42.4286C60.9375 47.629 56.7334 51.8571 51.5625 51.8571H50.3906C48.4424 51.8571 46.875 53.4335 46.875 55.3929V62.4643C46.875 64.4237 48.4424 66 50.3906 66H51.5625C64.5117 66 75 55.4518 75 42.4286V7.07143C75 3.16741 71.8506 0 67.9688 0ZM25.7812 0H7.03125C3.14941 0 0 3.16741 0 7.07143V25.9286C0 29.8326 3.14941 33 7.03125 33H18.75V42.4286C18.75 47.629 14.5459 51.8571 9.375 51.8571H8.20312C6.25488 51.8571 4.6875 53.4335 4.6875 55.3929V62.4643C4.6875 64.4237 6.25488 66 8.20312 66H9.375C22.3242 66 32.8125 55.4518 32.8125 42.4286V7.07143C32.8125 3.16741 29.6631 0 25.7812 0Z" fill="#04B4E0"/>
</svg>
